<svg id="svg" version="1.1" xmlns="http://www.w3.org/2000/svg" xmlns:xlink="http://www.w3.org/1999/xlink" width="400" height="400" viewBox="0, 0, 400,400"><g id="svgg"><path id="path0" d="M78.700 54.300 C 53.015 54.357,32.000 54.545,32.000 54.719 C 32.000 54.893,30.875 55.284,29.500 55.589 C 28.125 55.894,26.749 56.394,26.442 56.701 C 26.122 57.021,25.501 57.161,24.980 57.031 C 24.262 56.850,24.113 56.947,24.259 57.503 C 24.381 57.971,24.037 58.442,23.221 58.924 C 22.549 59.321,22.000 59.532,22.000 59.394 C 22.000 59.256,21.736 59.381,21.414 59.671 C 20.049 60.902,19.672 61.139,19.443 60.909 C 19.309 60.776,19.200 60.889,19.200 61.161 C 19.200 61.433,18.660 62.441,18.000 63.400 C 17.340 64.359,16.800 65.337,16.800 65.572 C 16.800 65.807,16.659 66.000,16.487 66.000 C 16.315 66.000,16.134 66.495,16.084 67.100 C 16.034 67.705,15.829 68.255,15.628 68.323 C 15.084 68.506,15.055 115.200,15.599 115.200 C 15.833 115.200,16.117 114.885,16.230 114.500 C 17.867 108.916,23.302 103.447,29.123 101.526 C 32.559 100.393,368.241 100.393,371.677 101.526 C 377.458 103.433,382.945 108.955,384.570 114.500 C 384.683 114.885,384.968 115.200,385.204 115.200 C 385.741 115.200,385.699 96.508,385.161 96.176 C 384.963 96.053,384.800 95.520,384.800 94.990 C 384.800 94.417,384.455 93.843,383.946 93.571 C 383.476 93.320,383.251 92.998,383.446 92.857 C 383.641 92.716,383.853 92.240,383.917 91.800 C 384.013 91.138,383.961 91.104,383.617 91.600 C 382.981 92.515,382.363 91.350,382.831 90.119 C 383.101 89.408,383.043 89.115,382.598 88.944 C 382.272 88.819,382.104 88.555,382.226 88.357 C 382.559 87.820,380.046 85.662,378.000 84.727 C 377.010 84.275,376.020 83.823,375.800 83.723 C 375.580 83.623,375.712 83.797,376.094 84.110 C 376.475 84.423,376.683 84.784,376.554 84.912 C 376.426 85.041,376.701 85.046,377.166 84.925 C 377.807 84.757,377.955 84.851,377.779 85.311 C 377.511 86.010,378.219 86.617,378.594 86.010 C 378.744 85.767,379.350 85.963,380.121 86.504 C 381.871 87.730,382.050 88.070,381.271 88.678 C 380.662 89.153,380.674 89.180,381.400 88.963 C 382.074 88.762,382.105 88.800,381.600 89.200 C 381.083 89.609,381.097 89.644,381.700 89.450 C 382.151 89.305,382.400 89.434,382.400 89.813 C 382.400 90.763,381.860 90.503,380.181 88.741 C 379.312 87.829,378.853 87.227,379.162 87.403 C 379.519 87.607,379.628 87.569,379.461 87.299 C 379.317 87.066,378.839 86.969,378.400 87.084 C 377.844 87.230,377.600 87.096,377.600 86.647 C 377.600 86.291,377.433 86.000,377.229 86.000 C 377.024 86.000,376.619 85.775,376.329 85.500 C 373.948 83.248,382.343 83.421,264.000 83.182 C 204.710 83.062,155.674 82.810,155.030 82.622 C 153.229 82.096,151.981 81.355,152.306 81.006 C 152.468 80.832,152.330 80.776,152.000 80.880 C 151.670 80.985,151.181 80.784,150.913 80.435 C 150.356 79.709,150.261 79.178,150.700 79.247 C 151.767 79.416,152.085 79.184,151.596 78.596 C 151.152 78.060,151.033 78.072,150.560 78.696 C 150.251 79.102,150.020 79.194,150.013 78.913 C 149.998 78.335,148.800 78.703,148.800 79.286 C 148.800 79.506,149.070 79.582,149.400 79.455 C 149.755 79.319,150.000 79.451,150.000 79.779 C 150.000 80.084,150.225 80.424,150.500 80.535 C 150.799 80.656,150.718 80.750,150.300 80.768 C 149.915 80.786,149.600 80.620,149.600 80.400 C 149.600 80.180,149.330 80.000,149.000 80.000 C 148.670 80.000,148.400 79.809,148.400 79.576 C 148.400 79.343,148.222 79.263,148.005 79.397 C 147.776 79.539,147.712 79.373,147.854 79.004 C 147.988 78.654,147.924 78.420,147.710 78.484 C 147.194 78.638,144.800 76.067,144.800 75.358 C 144.800 75.051,144.440 74.800,144.000 74.800 C 143.459 74.800,143.200 74.533,143.200 73.976 C 143.200 73.454,143.030 73.258,142.737 73.439 C 142.422 73.634,142.344 73.459,142.492 72.892 C 142.653 72.277,142.557 72.118,142.125 72.284 C 141.718 72.440,141.580 72.279,141.670 71.754 C 141.744 71.325,141.591 71.041,141.314 71.095 C 141.034 71.150,140.925 70.939,141.057 70.595 C 141.183 70.268,141.086 70.000,140.843 70.000 C 140.599 70.000,140.400 69.730,140.400 69.400 C 140.400 69.070,140.207 68.800,139.971 68.800 C 139.346 68.800,138.483 67.835,138.331 66.966 C 138.259 66.552,137.750 65.750,137.200 65.183 C 136.650 64.617,136.148 63.918,136.085 63.631 C 136.021 63.343,135.436 62.575,134.785 61.923 C 134.133 61.272,133.600 60.553,133.600 60.327 C 133.600 59.871,131.973 57.827,131.500 57.688 C 131.335 57.640,130.930 57.600,130.600 57.600 C 130.270 57.600,130.000 57.340,130.000 57.023 C 130.000 56.661,129.701 56.503,129.200 56.600 C 128.760 56.685,128.400 56.584,128.400 56.377 C 128.400 56.170,128.124 56.000,127.786 56.000 C 127.296 56.000,127.258 55.839,127.600 55.200 C 128.085 54.294,128.110 54.330,126.900 54.204 C 126.405 54.152,126.000 54.286,126.000 54.501 C 126.000 54.717,126.360 54.799,126.801 54.684 C 127.241 54.569,127.500 54.638,127.377 54.837 C 126.974 55.489,125.198 55.270,125.455 54.600 C 125.582 54.270,125.621 54.044,125.543 54.098 C 125.464 54.152,104.385 54.243,78.700 54.300 M33.600 334.400 C 33.600 335.579,366.897 335.479,367.124 334.300 C 367.252 333.634,359.099 333.600,200.429 333.600 C 33.834 333.600,33.600 333.601,33.600 334.400 M366.800 334.400 C 366.800 334.666,311.067 334.800,200.400 334.800 C 89.733 334.800,34.000 334.666,34.000 334.400 C 34.000 334.134,89.733 334.000,200.400 334.000 C 311.067 334.000,366.800 334.134,366.800 334.400 " stroke="none" fill="#93dbfb" fill-rule="evenodd"></path><path id="path1" d="M152.000 78.176 C 152.000 78.493,152.180 78.864,152.400 79.000 C 152.620 79.136,152.800 78.877,152.800 78.424 C 152.800 77.971,152.620 77.600,152.400 77.600 C 152.180 77.600,152.000 77.859,152.000 78.176 M376.800 83.600 C 376.800 83.820,377.239 84.000,377.776 84.000 C 378.313 84.000,378.864 83.820,379.000 83.600 C 379.144 83.367,378.737 83.200,378.024 83.200 C 377.351 83.200,376.800 83.380,376.800 83.600 M31.200 101.766 C 24.835 103.165,16.800 110.554,16.800 115.009 C 16.800 115.312,16.485 115.737,16.100 115.952 C 15.272 116.415,14.851 336.200,15.675 337.739 C 15.977 338.304,15.958 338.421,15.600 338.200 C 15.237 337.976,15.224 338.098,15.546 338.699 C 15.780 339.137,15.843 339.631,15.686 339.797 C 15.529 339.963,15.820 339.970,16.334 339.812 C 17.185 339.550,17.229 339.599,16.820 340.362 C 16.468 341.021,16.488 341.200,16.914 341.200 C 17.556 341.200,19.197 342.992,19.206 343.703 C 19.210 344.030,19.345 343.995,19.600 343.600 C 19.979 343.014,20.046 343.076,20.151 344.100 C 20.212 344.698,21.505 344.798,22.548 344.287 C 22.960 344.085,23.202 344.073,23.086 344.260 C 22.971 344.447,103.357 344.557,201.722 344.504 L 380.567 344.409 381.069 343.504 C 381.346 343.007,381.578 342.769,381.586 342.976 C 381.594 343.184,381.854 343.005,382.165 342.581 C 382.475 342.156,382.655 341.689,382.564 341.542 C 382.473 341.395,382.727 341.360,383.127 341.465 C 383.532 341.571,384.110 341.343,384.428 340.951 C 384.868 340.409,384.875 340.322,384.460 340.571 C 384.014 340.840,384.006 340.731,384.414 339.948 C 385.066 338.698,385.400 338.400,385.043 339.388 C 384.886 339.821,384.902 340.031,385.079 339.855 C 385.565 339.369,385.529 336.242,385.034 335.906 C 384.739 335.706,384.760 335.610,385.100 335.606 C 385.499 335.601,385.600 313.370,385.600 225.800 C 385.600 125.600,385.544 116.000,384.963 116.000 C 384.612 116.000,384.220 115.595,384.092 115.100 C 382.512 108.991,376.137 103.190,369.419 101.747 C 366.340 101.086,174.607 100.942,174.200 101.600 C 173.858 102.153,63.742 102.153,63.400 101.600 C 63.029 101.000,34.004 101.149,31.200 101.766 M367.600 325.000 L 367.600 326.000 200.400 326.000 L 33.200 326.000 33.200 325.000 L 33.200 324.000 200.400 324.000 L 367.600 324.000 367.600 325.000 M367.400 334.400 L 367.400 335.400 297.619 335.501 C 251.899 335.567,227.700 335.740,227.439 336.001 C 226.889 336.551,140.311 336.551,139.761 336.001 C 139.502 335.742,120.901 335.568,86.381 335.501 L 33.400 335.400 33.273 334.300 L 33.147 333.199 200.273 333.300 L 367.400 333.400 367.400 334.400 " stroke="none" fill="#6cccfc" fill-rule="evenodd"></path><path id="path2" d="M62.800 54.004 C 62.800 54.274,72.777 54.390,92.700 54.352 C 109.145 54.321,122.060 54.160,121.400 53.995 C 119.497 53.518,62.800 53.527,62.800 54.004 M125.151 53.961 C 125.454 54.153,125.579 54.511,125.428 54.755 C 125.270 55.011,125.424 55.200,125.790 55.200 C 126.304 55.200,126.345 55.044,126.000 54.400 C 125.765 53.960,125.353 53.603,125.086 53.606 C 124.753 53.610,124.774 53.722,125.151 53.961 M126.400 53.958 C 126.400 54.187,126.656 54.277,126.968 54.157 C 127.383 53.998,127.506 54.216,127.423 54.969 C 127.337 55.759,127.490 56.000,128.079 56.000 C 128.501 56.000,128.742 56.171,128.613 56.379 C 128.484 56.588,128.743 56.688,129.189 56.602 C 129.674 56.509,130.000 56.659,130.000 56.976 C 130.000 57.268,130.360 57.601,130.801 57.716 C 131.241 57.831,131.510 57.778,131.398 57.597 C 131.286 57.416,131.385 57.205,131.617 57.128 C 131.849 57.050,131.452 56.450,130.735 55.794 C 130.017 55.137,129.671 54.915,129.964 55.300 C 130.321 55.767,130.349 56.000,130.049 56.000 C 129.802 56.000,129.465 55.998,129.300 55.996 C 129.135 55.993,128.996 55.678,128.991 55.296 C 128.985 54.858,128.723 54.644,128.284 54.719 C 127.895 54.785,127.634 54.619,127.694 54.343 C 127.752 54.070,127.485 53.779,127.100 53.694 C 126.715 53.610,126.400 53.729,126.400 53.958 M131.902 58.100 C 131.653 58.776,131.972 59.600,132.482 59.600 C 132.717 59.600,132.659 59.306,132.349 58.925 C 131.864 58.329,131.888 58.283,132.557 58.534 C 133.199 58.775,133.237 58.726,132.808 58.209 C 132.195 57.472,132.135 57.464,131.902 58.100 M20.041 59.964 C 19.502 60.432,19.323 60.829,19.580 60.988 C 19.811 61.130,20.000 61.069,20.000 60.851 C 20.000 60.632,20.360 60.340,20.800 60.200 C 21.240 60.060,21.600 59.778,21.600 59.573 C 21.600 58.984,20.998 59.135,20.041 59.964 M143.778 64.435 C 143.631 64.674,143.710 65.070,143.955 65.315 C 144.282 65.642,144.400 65.526,144.400 64.880 C 144.400 63.914,144.192 63.765,143.778 64.435 M138.610 67.184 C 138.271 67.733,138.571 68.145,139.162 67.942 C 139.404 67.858,139.435 67.576,139.237 67.257 C 138.987 66.855,138.825 66.836,138.610 67.184 M142.000 71.371 C 142.000 71.717,142.191 72.000,142.424 72.000 C 142.657 72.000,142.748 72.161,142.626 72.358 C 142.504 72.555,142.664 72.816,142.982 72.938 C 143.660 73.198,143.363 72.122,142.522 71.271 C 142.090 70.834,142.000 70.851,142.000 71.371 M143.206 74.100 C 143.202 74.535,143.502 74.800,144.000 74.800 C 144.440 74.800,144.800 74.609,144.800 74.376 C 144.800 74.143,144.600 74.076,144.355 74.228 C 144.111 74.379,143.753 74.254,143.561 73.951 C 143.285 73.515,143.211 73.546,143.206 74.100 M145.033 75.146 C 144.861 75.425,144.783 75.692,144.860 75.740 C 144.937 75.787,145.360 76.090,145.800 76.413 C 146.508 76.932,146.549 76.931,146.154 76.400 C 145.908 76.070,145.626 75.539,145.527 75.220 C 145.386 74.767,145.278 74.751,145.033 75.146 M151.280 76.480 C 150.563 77.197,150.699 77.552,151.600 77.316 C 152.040 77.201,152.400 76.858,152.400 76.553 C 152.400 75.873,151.919 75.841,151.280 76.480 M150.164 77.941 C 150.280 78.129,150.130 78.616,149.832 79.024 C 149.180 79.916,149.436 80.802,150.343 80.794 C 150.878 80.789,150.897 80.722,150.442 80.434 C 150.123 80.233,149.993 79.795,150.139 79.415 C 150.279 79.049,150.594 78.872,150.837 79.023 C 151.152 79.218,151.149 79.052,150.826 78.448 C 150.576 77.982,150.278 77.600,150.162 77.600 C 150.047 77.600,150.048 77.753,150.164 77.941 M148.157 78.633 C 148.291 78.981,148.413 79.476,148.428 79.733 C 148.444 79.990,148.611 79.840,148.800 79.400 C 149.307 78.221,149.269 78.000,148.557 78.000 C 148.135 78.000,147.998 78.218,148.157 78.633 M150.400 79.685 C 150.400 79.858,150.580 80.000,150.800 80.000 C 151.020 80.000,151.200 80.253,151.200 80.563 C 151.200 80.928,151.480 81.052,152.000 80.916 C 153.362 80.560,153.022 79.170,151.600 79.279 C 150.940 79.329,150.400 79.512,150.400 79.685 M374.179 83.566 C 374.303 83.767,374.179 84.020,373.902 84.128 C 373.626 84.237,373.985 84.455,374.700 84.613 C 375.415 84.771,376.000 85.058,376.000 85.250 C 376.000 85.442,376.287 85.600,376.637 85.600 C 376.988 85.600,377.373 85.975,377.493 86.432 C 377.642 87.006,377.942 87.204,378.455 87.070 C 378.864 86.963,379.317 87.066,379.461 87.299 C 379.629 87.571,379.521 87.606,379.162 87.397 C 378.853 87.218,379.026 87.539,379.546 88.110 C 380.495 89.153,382.207 88.933,381.738 87.829 C 381.429 87.100,378.833 85.622,378.581 86.031 C 378.305 86.478,377.600 86.135,377.600 85.553 C 377.600 85.333,377.808 85.281,378.062 85.438 C 378.359 85.622,378.415 85.547,378.217 85.227 C 378.048 84.954,377.552 84.824,377.115 84.938 C 376.678 85.052,376.414 85.053,376.527 84.940 C 376.853 84.614,375.267 83.200,374.576 83.200 C 374.233 83.200,374.055 83.365,374.179 83.566 M379.080 84.129 C 379.256 84.420,380.193 85.365,381.163 86.229 C 382.269 87.214,382.718 87.465,382.367 86.900 C 382.059 86.405,381.660 86.000,381.480 86.000 C 381.300 86.000,381.281 85.792,381.438 85.538 C 381.625 85.235,381.547 85.186,381.210 85.394 C 380.868 85.605,380.758 85.526,380.880 85.159 C 381.108 84.477,380.280 83.600,379.409 83.600 C 378.976 83.600,378.867 83.776,379.080 84.129 M381.600 89.200 C 382.036 89.482,382.057 89.589,381.676 89.594 C 381.388 89.597,381.274 89.796,381.422 90.035 C 381.601 90.325,381.824 90.336,382.090 90.070 C 382.558 89.602,382.167 88.797,381.476 88.806 C 381.190 88.810,381.239 88.967,381.600 89.200 M382.889 90.847 C 382.907 91.468,383.199 92.067,383.549 92.202 C 384.096 92.412,384.101 92.492,383.589 92.822 C 383.106 93.132,383.163 93.245,383.900 93.447 C 384.395 93.582,384.803 93.987,384.806 94.347 C 384.809 94.706,384.990 95.270,385.207 95.600 C 385.491 96.031,385.566 95.713,385.474 94.469 C 385.404 93.517,385.111 92.592,384.822 92.414 C 384.534 92.235,384.422 91.888,384.574 91.641 C 384.734 91.383,384.460 91.036,383.926 90.822 C 383.417 90.618,383.225 90.439,383.500 90.425 C 384.198 90.390,384.130 89.733,383.429 89.733 C 383.063 89.733,382.869 90.134,382.889 90.847 M34.000 325.000 C 34.000 325.532,52.756 325.600,200.400 325.600 C 348.044 325.600,366.800 325.532,366.800 325.000 C 366.800 324.468,348.044 324.400,200.400 324.400 C 52.756 324.400,34.000 324.468,34.000 325.000 M34.000 334.400 C 34.000 334.666,89.733 334.800,200.400 334.800 C 311.067 334.800,366.800 334.666,366.800 334.400 C 366.800 334.134,311.067 334.000,200.400 334.000 C 89.733 334.000,34.000 334.134,34.000 334.400 M382.860 342.242 C 382.562 342.578,382.399 342.932,382.495 343.029 C 382.592 343.126,382.998 342.844,383.398 342.402 C 383.797 341.961,383.961 341.607,383.762 341.615 C 383.563 341.624,383.157 341.905,382.860 342.242 " stroke="none" fill="#a4e4fc" fill-rule="evenodd"></path><path id="path3" d="M128.194 54.410 C 128.055 54.635,128.179 54.770,128.470 54.710 C 128.764 54.649,128.940 54.868,128.867 55.200 C 128.793 55.530,128.867 55.667,129.030 55.503 C 129.193 55.340,129.613 55.425,129.963 55.691 C 130.313 55.958,130.164 55.686,129.630 55.088 C 128.529 53.852,128.536 53.856,128.194 54.410 M30.200 101.200 L 29.400 101.544 30.200 101.525 C 30.640 101.514,31.540 101.368,32.200 101.200 L 33.400 100.895 32.200 100.875 C 31.540 100.865,30.640 101.011,30.200 101.200 M63.402 101.203 C 63.741 101.752,173.865 101.742,174.204 101.193 C 174.363 100.936,155.112 100.800,118.800 100.800 C 81.527 100.800,63.235 100.933,63.402 101.203 M368.600 101.200 C 369.260 101.368,370.160 101.514,370.600 101.525 L 371.400 101.544 370.600 101.200 C 370.160 101.011,369.260 100.865,368.600 100.875 L 367.400 100.895 368.600 101.200 M27.600 102.000 C 27.067 102.345,27.067 102.388,27.600 102.388 C 27.930 102.388,28.470 102.213,28.800 102.000 C 29.333 101.655,29.333 101.612,28.800 101.612 C 28.470 101.612,27.930 101.787,27.600 102.000 M372.000 102.000 C 372.330 102.213,372.870 102.388,373.200 102.388 C 373.733 102.388,373.733 102.345,373.200 102.000 C 372.870 101.787,372.330 101.612,372.000 101.612 C 371.467 101.612,371.467 101.655,372.000 102.000 M24.445 103.770 C 20.959 106.116,16.400 111.924,16.400 114.020 C 16.400 114.299,16.955 113.417,17.633 112.060 C 19.123 109.078,22.097 105.734,24.805 103.997 C 26.599 102.845,27.111 102.400,26.640 102.400 C 26.552 102.400,25.564 103.016,24.445 103.770 M374.000 102.533 C 374.000 102.634,374.898 103.293,375.995 103.997 C 378.737 105.757,381.734 109.145,383.175 112.116 C 383.837 113.482,384.382 114.330,384.385 114.000 C 384.396 112.837,381.774 108.775,379.543 106.499 C 377.623 104.539,374.000 101.947,374.000 102.533 M33.335 324.626 C 33.202 324.971,33.262 325.422,33.467 325.627 C 34.352 326.512,367.400 325.887,367.400 325.000 C 367.400 323.886,33.762 323.512,33.335 324.626 M367.200 325.000 C 367.200 325.532,348.400 325.600,200.400 325.600 C 52.400 325.600,33.600 325.532,33.600 325.000 C 33.600 324.468,52.400 324.400,200.400 324.400 C 348.400 324.400,367.200 324.468,367.200 325.000 M117.100 333.500 C 162.915 333.556,237.885 333.556,283.700 333.500 C 329.515 333.444,292.030 333.398,200.400 333.398 C 108.770 333.398,71.285 333.444,117.100 333.500 M141.111 335.493 C 142.051 335.578,143.491 335.577,144.311 335.491 C 145.130 335.405,144.360 335.336,142.600 335.337 C 140.840 335.339,140.170 335.409,141.111 335.493 M155.111 335.493 C 156.051 335.578,157.491 335.577,158.311 335.491 C 159.130 335.405,158.360 335.336,156.600 335.337 C 154.840 335.339,154.170 335.409,155.111 335.493 M200.719 335.498 C 202.544 335.572,205.424 335.572,207.119 335.497 C 208.814 335.422,207.320 335.361,203.800 335.362 C 200.280 335.362,198.894 335.424,200.719 335.498 M221.107 335.490 C 221.826 335.579,222.906 335.577,223.507 335.486 C 224.108 335.395,223.520 335.322,222.200 335.324 C 220.880 335.326,220.388 335.401,221.107 335.490 " stroke="none" fill="#7ed2f9" fill-rule="evenodd"></path><path id="path4" d="M40.726 101.100 C 44.976 101.164,51.816 101.164,55.926 101.099 C 60.037 101.034,56.560 100.981,48.200 100.981 C 39.840 100.982,36.477 101.035,40.726 101.100 M177.491 101.089 C 178.201 101.177,179.461 101.179,180.291 101.092 C 181.121 101.005,180.540 100.933,179.000 100.931 C 177.460 100.929,176.781 101.000,177.491 101.089 M186.100 101.097 C 187.585 101.174,190.015 101.174,191.500 101.097 C 192.985 101.020,191.770 100.957,188.800 100.957 C 185.830 100.957,184.615 101.020,186.100 101.097 M198.100 101.097 C 199.805 101.172,202.595 101.172,204.300 101.097 C 206.005 101.022,204.610 100.961,201.200 100.961 C 197.790 100.961,196.395 101.022,198.100 101.097 M208.707 101.090 C 209.426 101.179,210.506 101.177,211.107 101.086 C 211.708 100.995,211.120 100.922,209.800 100.924 C 208.480 100.926,207.988 101.001,208.707 101.090 M256.332 101.100 C 276.864 101.157,310.344 101.157,330.732 101.100 C 351.119 101.043,334.320 100.996,293.400 100.996 C 252.480 100.996,235.799 101.043,256.332 101.100 M60.300 335.500 C 74.875 335.558,98.725 335.558,113.300 335.500 C 127.875 335.442,115.950 335.394,86.800 335.394 C 57.650 335.394,45.725 335.442,60.300 335.500 M262.300 335.500 C 281.495 335.557,312.905 335.557,332.100 335.500 C 351.295 335.443,335.590 335.396,297.200 335.396 C 258.810 335.396,243.105 335.443,262.300 335.500 " stroke="none" fill="#74d4fc" fill-rule="evenodd"></path><path id="path5" d="M32.800 54.000 C 32.800 54.260,38.075 54.400,47.824 54.400 C 57.737 54.400,62.763 54.264,62.600 54.000 C 62.442 53.745,56.996 53.600,47.576 53.600 C 37.992 53.600,32.800 53.741,32.800 54.000 M28.400 54.800 C 28.400 55.020,27.950 55.200,27.400 55.200 C 26.850 55.200,26.400 55.380,26.400 55.600 C 26.400 55.820,26.040 56.000,25.600 56.000 C 24.802 56.000,24.560 56.426,25.068 56.935 C 25.216 57.082,25.724 56.949,26.198 56.638 C 26.672 56.328,28.081 55.836,29.330 55.546 C 31.975 54.931,32.286 54.400,30.000 54.400 C 29.120 54.400,28.400 54.580,28.400 54.800 M23.200 57.600 C 23.200 58.040,23.361 58.400,23.557 58.400 C 24.007 58.400,24.426 57.360,24.106 57.039 C 23.624 56.558,23.200 56.820,23.200 57.600 M21.300 58.198 C 20.562 59.037,20.673 59.177,22.003 59.084 C 22.820 59.027,23.142 58.829,23.003 58.467 C 22.892 58.174,22.800 57.859,22.800 57.767 C 22.800 57.377,21.760 57.676,21.300 58.198 M147.300 335.487 C 147.905 335.578,148.895 335.578,149.500 335.487 C 150.105 335.395,149.610 335.320,148.400 335.320 C 147.190 335.320,146.695 335.395,147.300 335.487 M162.117 335.497 C 163.611 335.574,165.951 335.574,167.317 335.496 C 168.682 335.418,167.460 335.355,164.600 335.355 C 161.740 335.356,160.622 335.420,162.117 335.497 M178.500 335.491 C 179.325 335.578,180.675 335.578,181.500 335.491 C 182.325 335.405,181.650 335.334,180.000 335.334 C 178.350 335.334,177.675 335.405,178.500 335.491 M184.100 335.487 C 184.705 335.578,185.695 335.578,186.300 335.487 C 186.905 335.395,186.410 335.320,185.200 335.320 C 183.990 335.320,183.495 335.395,184.100 335.487 M188.500 335.487 C 189.105 335.578,190.095 335.578,190.700 335.487 C 191.305 335.395,190.810 335.320,189.600 335.320 C 188.390 335.320,187.895 335.395,188.500 335.487 M195.505 335.483 C 196.002 335.579,196.722 335.575,197.105 335.475 C 197.487 335.375,197.080 335.296,196.200 335.301 C 195.320 335.305,195.007 335.387,195.505 335.483 M213.091 335.489 C 213.801 335.577,215.061 335.579,215.891 335.492 C 216.721 335.405,216.140 335.333,214.600 335.331 C 213.060 335.329,212.381 335.400,213.091 335.489 M225.105 335.483 C 225.602 335.579,226.322 335.575,226.705 335.475 C 227.087 335.375,226.680 335.296,225.800 335.301 C 224.920 335.305,224.607 335.387,225.105 335.483 " stroke="none" fill="#74ccec" fill-rule="evenodd"></path><path id="path6" d="M15.378 128.600 C 15.379 135.640,15.433 138.464,15.499 134.875 C 15.566 131.286,15.566 125.526,15.499 122.075 C 15.433 118.624,15.378 121.560,15.378 128.600 M15.375 325.600 C 15.375 331.430,15.431 333.815,15.499 330.900 C 15.567 327.985,15.567 323.215,15.499 320.300 C 15.431 317.385,15.375 319.770,15.375 325.600 M139.808 336.013 C 140.125 336.526,227.064 336.543,227.381 336.030 C 227.521 335.804,210.450 335.653,183.589 335.643 C 155.313 335.632,139.654 335.764,139.808 336.013 M112.333 344.700 C 161.026 344.756,240.586 344.756,289.133 344.700 C 337.680 344.644,297.840 344.598,200.600 344.598 C 103.360 344.598,63.640 344.644,112.333 344.700 " stroke="none" fill="#6cccf4" fill-rule="evenodd"></path><path id="path7" d="M151.294 78.300 C 151.759 78.795,152.153 79.200,152.170 79.200 C 152.186 79.200,152.200 78.795,152.200 78.300 C 152.200 77.641,151.966 77.400,151.324 77.400 L 150.448 77.400 151.294 78.300 M378.277 84.816 C 379.199 85.248,380.065 85.781,380.199 85.999 C 380.334 86.217,380.840 86.606,381.322 86.863 C 382.085 87.270,382.135 87.252,381.703 86.729 C 381.430 86.397,381.295 86.008,381.403 85.863 C 381.512 85.718,381.481 85.689,381.335 85.798 C 381.190 85.907,380.482 85.547,379.762 84.998 C 379.042 84.449,378.036 84.007,377.527 84.015 C 376.800 84.026,376.962 84.199,378.277 84.816 M21.781 106.500 L 20.200 108.200 21.900 106.619 C 23.481 105.148,23.784 104.800,23.481 104.800 C 23.416 104.800,22.651 105.565,21.781 106.500 M378.400 106.200 C 379.146 106.970,379.847 107.600,379.957 107.600 C 380.067 107.600,379.546 106.970,378.800 106.200 C 378.054 105.430,377.353 104.800,377.243 104.800 C 377.133 104.800,377.654 105.430,378.400 106.200 M383.818 114.500 C 383.968 114.995,384.255 115.576,384.456 115.791 C 384.657 116.006,384.619 115.601,384.372 114.891 C 383.865 113.438,383.397 113.108,383.818 114.500 " stroke="none" fill="#74ccf8" fill-rule="evenodd"></path><path id="path8" d="M73.900 101.900 C 79.455 101.962,88.545 101.962,94.100 101.900 C 99.655 101.837,95.110 101.786,84.000 101.786 C 72.890 101.786,68.345 101.837,73.900 101.900 M106.700 101.893 C 107.635 101.977,109.165 101.977,110.100 101.893 C 111.035 101.809,110.270 101.740,108.400 101.740 C 106.530 101.740,105.765 101.809,106.700 101.893 M117.500 101.889 C 118.215 101.978,119.385 101.978,120.100 101.889 C 120.815 101.801,120.230 101.728,118.800 101.728 C 117.370 101.728,116.785 101.801,117.500 101.889 M137.129 101.900 C 144.020 101.961,155.180 101.961,161.929 101.900 C 168.678 101.838,163.040 101.788,149.400 101.788 C 135.760 101.788,130.238 101.838,137.129 101.900 " stroke="none" fill="#70ccfc" fill-rule="evenodd"></path></g></svg>